<svg width="50" height="50" viewBox="0 0 50 50" fill="none" xmlns="http://www.w3.org/2000/svg">
<mask id="path-1-outside-1_131_45" maskUnits="userSpaceOnUse" x="-16" y="-17" width="489" height="120" fill="black">
<rect fill="white" x="-16" y="-17" width="489" height="120"/>
<path d="M-11 -13C-11 -15.2091 -9.20914 -17 -7 -17H473V93C473 98.5229 468.523 103 463 103H-6.99999C-9.20913 103 -11 101.209 -11 99V-13Z"/>
</mask>
<path d="M-11 -13C-11 -15.2091 -9.20914 -17 -7 -17H473V93C473 98.5229 468.523 103 463 103H-6.99999C-9.20913 103 -11 101.209 -11 99V-13Z" fill="url(#paint0_linear_131_45)"/>
<path d="M-11 -17H473H-11ZM473 103H-11H473ZM-7 103C-11.9706 103 -16 98.9706 -16 94V-8C-16 -12.9706 -11.9706 -17 -7 -17H-6C-6 -17 -6 -15.2091 -6 -13V99C-6 101.209 -6 103 -6 103H-7ZM473 -17V103V-17Z" fill="#162C3B" mask="url(#path-1-outside-1_131_45)"/>
<path d="M24.512 49.024C20.16 49.024 16.3413 48.0853 13.056 46.208C9.77067 44.3307 7.232 41.7067 5.44 38.336C3.648 34.9227 2.752 30.9547 2.752 26.432C2.752 23.4453 3.2 20.5227 4.096 17.664C5.03467 14.8053 6.42133 12.2027 8.256 9.856C10.1333 7.50933 12.4587 5.65333 15.232 4.288C18.048 2.88 21.312 2.176 25.024 2.176C26.432 2.176 27.904 2.304 29.44 2.56C30.976 2.816 32.4693 3.2 33.92 3.712C35.4133 4.224 36.7573 4.84267 37.952 5.568L37.696 2.624H41.664V17.344H38.72C38.5067 14.784 37.7813 12.6293 36.544 10.88C35.3493 9.088 33.792 7.744 31.872 6.848C29.9947 5.90933 27.904 5.44 25.6 5.44C23.3387 5.44 21.2693 5.952 19.392 6.976C17.5573 7.95733 15.9573 9.344 14.592 11.136C13.2267 12.8853 12.16 14.9547 11.392 17.344C10.6667 19.7333 10.304 22.2933 10.304 25.024C10.304 28.9493 10.944 32.448 12.224 35.52C13.5467 38.5493 15.4027 40.9387 17.792 42.688C20.1813 44.4373 22.976 45.312 26.176 45.312C27.2 45.312 28.3093 45.2267 29.504 45.056C30.7413 44.8427 31.9573 44.544 33.152 44.16C34.3893 43.7333 35.4987 43.2 36.48 42.56V35.392C36.48 34.3253 36.48 33.28 36.48 32.256C36.5227 31.1893 36.544 30.208 36.544 29.312C35.8613 29.3547 35.0933 29.3973 34.24 29.44C33.3867 29.4827 32.64 29.5253 32 29.568V26.048H47.296V28.864C46.272 28.864 45.44 29.0987 44.8 29.568C44.2027 30.0373 43.7547 30.6347 43.456 31.36C43.2 32.0427 43.0293 32.7893 42.944 33.6C42.8587 34.368 42.816 35.0933 42.816 35.776V45.76H41.152C40.256 45.76 39.2107 45.9093 38.016 46.208C36.8213 46.464 35.4773 46.8693 33.984 47.424C32.6613 47.8933 31.1467 48.2773 29.44 48.576C27.7333 48.8747 26.0907 49.024 24.512 49.024ZM64.7545 49.024C62.3652 49.024 60.3812 48.576 58.8025 47.68C57.2665 46.784 56.1145 45.312 55.3465 43.264C54.5785 41.1733 54.1945 38.4213 54.1945 35.008V24.96C54.1945 24.2347 54.1945 23.488 54.1945 22.72C54.2372 21.9093 54.3225 21.12 54.4505 20.352C53.7252 20.3947 52.9572 20.4373 52.1465 20.48C51.3358 20.48 50.6105 20.5013 49.9705 20.544V17.152H51.5065C53.6398 17.152 55.2398 16.96 56.3065 16.576C57.3732 16.192 58.1198 15.7867 58.5465 15.36H60.9785V34.88C60.9785 38.2507 61.4478 40.768 62.3865 42.432C63.3252 44.096 64.9038 44.9067 67.1225 44.864C68.5732 44.864 69.9598 44.4373 71.2825 43.584C72.6478 42.7307 73.7572 41.728 74.6105 40.576V25.408C74.6105 24.4693 74.6318 23.5947 74.6745 22.784C74.7172 21.9307 74.8025 21.12 74.9305 20.352C74.1625 20.3947 73.3732 20.4373 72.5625 20.48C71.7518 20.48 71.0052 20.5013 70.3225 20.544V17.152H72.1785C74.0558 17.152 75.5278 16.96 76.5945 16.576C77.6612 16.192 78.4292 15.7867 78.8985 15.36H81.3305L81.2665 38.912C81.2665 39.5947 81.2452 40.5333 81.2025 41.728C81.1598 42.88 81.0958 43.904 81.0105 44.8C81.7358 44.7573 82.4825 44.7147 83.2505 44.672C84.0612 44.6293 84.8078 44.608 85.4905 44.608V48H75.3145C75.2292 47.3173 75.1438 46.6773 75.0585 46.08C75.0158 45.4827 74.9518 44.9067 74.8665 44.352C73.5438 45.5893 72.0078 46.6773 70.2585 47.616C68.5092 48.5547 66.6745 49.024 64.7545 49.024ZM108.82 48C108.734 47.3173 108.67 46.72 108.628 46.208C108.585 45.696 108.521 45.1627 108.436 44.608C106.985 46.0587 105.428 47.168 103.764 47.936C102.1 48.6613 100.372 49.024 98.5795 49.024C95.5075 49.024 93.1822 48.2773 91.6035 46.784C90.0675 45.248 89.2995 43.3493 89.2995 41.088C89.2995 39.1253 89.8755 37.4187 91.0275 35.968C92.1795 34.5173 93.6942 33.344 95.5715 32.448C97.4488 31.5093 99.4968 30.8267 101.716 30.4C103.934 29.9307 106.11 29.696 108.244 29.696V25.92C108.244 24.5547 108.116 23.296 107.86 22.144C107.604 20.9493 107.07 19.9893 106.26 19.264C105.492 18.496 104.276 18.112 102.612 18.112C101.502 18.0693 100.393 18.2827 99.2835 18.752C98.1742 19.1787 97.3208 19.904 96.7235 20.928C97.0648 21.2693 97.2782 21.6747 97.3635 22.144C97.4915 22.5707 97.5555 22.976 97.5555 23.36C97.5555 23.9573 97.2995 24.64 96.7875 25.408C96.2755 26.1333 95.4008 26.4747 94.1635 26.432C93.1395 26.432 92.3502 26.0907 91.7955 25.408C91.2835 24.6827 91.0275 23.8507 91.0275 22.912C91.0275 21.376 91.5822 20.0107 92.6915 18.816C93.8435 17.6213 95.4008 16.6827 97.3635 16C99.3262 15.3173 101.524 14.976 103.956 14.976C107.625 14.976 110.356 15.936 112.148 17.856C113.982 19.776 114.9 22.8053 114.9 26.944C114.9 28.48 114.9 29.952 114.9 31.36C114.9 32.768 114.878 34.176 114.836 35.584C114.836 36.992 114.836 38.4853 114.836 40.064C114.836 40.704 114.814 41.4293 114.772 42.24C114.729 43.0507 114.665 43.904 114.58 44.8C115.305 44.7573 116.052 44.7147 116.82 44.672C117.588 44.6293 118.313 44.608 118.996 44.608V48H108.82ZM108.244 32.64C106.878 32.7253 105.47 32.9173 104.02 33.216C102.612 33.5147 101.332 33.9627 100.18 34.56C99.0275 35.1573 98.0888 35.9253 97.3635 36.864C96.6808 37.8027 96.3395 38.9333 96.3395 40.256C96.4248 41.7067 96.8942 42.7733 97.7475 43.456C98.6435 44.1387 99.6888 44.48 100.884 44.48C102.377 44.48 103.7 44.2027 104.852 43.648C106.004 43.0507 107.134 42.24 108.244 41.216C108.201 40.7467 108.18 40.2773 108.18 39.808C108.18 39.296 108.18 38.7627 108.18 38.208C108.18 37.824 108.18 37.12 108.18 36.096C108.222 35.0293 108.244 33.8773 108.244 32.64ZM123.127 48V45.312C124.407 45.312 125.303 45.0133 125.815 44.416C126.327 43.8187 126.626 42.9867 126.711 41.92C126.839 40.8533 126.903 39.616 126.903 38.208V24.896C126.903 24.2133 126.903 23.488 126.903 22.72C126.946 21.9093 127.031 21.12 127.159 20.352C126.434 20.3947 125.666 20.4373 124.855 20.48C124.044 20.48 123.298 20.5013 122.615 20.544V17.152C124.535 17.152 126.028 17.0667 127.095 16.896C128.204 16.6827 129.036 16.448 129.591 16.192C130.188 15.936 130.636 15.6587 130.935 15.36H133.239C133.324 15.7867 133.367 16.2987 133.367 16.896C133.41 17.4507 133.452 18.048 133.495 18.688C134.818 17.5787 136.311 16.6827 137.975 16C139.682 15.3173 141.324 14.976 142.903 14.976C144.994 14.976 146.722 15.36 148.087 16.128C149.495 16.8533 150.604 17.8987 151.415 19.264C152.908 18.0267 154.594 17.0027 156.471 16.192C158.348 15.3813 160.183 14.976 161.975 14.976C165.602 14.976 168.29 16.064 170.039 18.24C171.788 20.3733 172.642 23.9573 172.599 28.992L172.535 40.064C172.535 40.832 172.514 41.6213 172.471 42.432C172.471 43.2 172.407 43.9893 172.279 44.8C172.962 44.7573 173.666 44.736 174.391 44.736C175.116 44.6933 175.778 44.6507 176.375 44.608V48H162.295V45.312C163.49 45.312 164.322 45.0133 164.791 44.416C165.303 43.8187 165.602 42.9867 165.687 41.92C165.815 40.8533 165.879 39.616 165.879 38.208V28.992C165.836 25.6213 165.282 23.1467 164.215 21.568C163.148 19.9893 161.527 19.2 159.351 19.2C158.114 19.2 156.898 19.4773 155.703 20.032C154.508 20.544 153.442 21.2053 152.503 22.016C152.716 22.7413 152.866 23.552 152.951 24.448C153.079 25.3013 153.143 26.1973 153.143 27.136C153.1 29.2693 153.079 31.424 153.079 33.6C153.079 35.7333 153.079 37.888 153.079 40.064C153.079 40.832 153.058 41.6213 153.015 42.432C152.972 43.2 152.908 43.9893 152.823 44.8C153.506 44.7573 154.188 44.736 154.871 44.736C155.596 44.6933 156.258 44.6507 156.855 44.608V48H142.647V45.312C143.927 45.312 144.802 45.0133 145.271 44.416C145.783 43.8187 146.082 42.9867 146.167 41.92C146.295 40.8533 146.359 39.616 146.359 38.208V28.928C146.402 25.5573 145.911 23.0827 144.887 21.504C143.906 19.8827 142.327 19.0933 140.151 19.136C138.914 19.136 137.719 19.4133 136.567 19.968C135.415 20.48 134.412 21.1413 133.559 21.952C133.559 22.464 133.559 22.9973 133.559 23.552C133.602 24.1067 133.623 24.704 133.623 25.344V40.064C133.623 40.832 133.602 41.6213 133.559 42.432C133.516 43.2 133.452 43.9893 133.367 44.8C134.05 44.7573 134.732 44.736 135.415 44.736C136.098 44.6933 136.738 44.6507 137.335 44.608V48H123.127ZM199.82 48C199.734 47.3173 199.67 46.72 199.628 46.208C199.585 45.696 199.521 45.1627 199.436 44.608C197.985 46.0587 196.428 47.168 194.764 47.936C193.1 48.6613 191.372 49.024 189.58 49.024C186.508 49.024 184.182 48.2773 182.604 46.784C181.068 45.248 180.299 43.3493 180.299 41.088C180.299 39.1253 180.876 37.4187 182.028 35.968C183.18 34.5173 184.694 33.344 186.572 32.448C188.449 31.5093 190.497 30.8267 192.716 30.4C194.934 29.9307 197.11 29.696 199.244 29.696V25.92C199.244 24.5547 199.116 23.296 198.86 22.144C198.604 20.9493 198.07 19.9893 197.26 19.264C196.492 18.496 195.276 18.112 193.612 18.112C192.502 18.0693 191.393 18.2827 190.284 18.752C189.174 19.1787 188.321 19.904 187.724 20.928C188.065 21.2693 188.278 21.6747 188.364 22.144C188.492 22.5707 188.556 22.976 188.556 23.36C188.556 23.9573 188.3 24.64 187.788 25.408C187.276 26.1333 186.401 26.4747 185.164 26.432C184.14 26.432 183.35 26.0907 182.796 25.408C182.284 24.6827 182.028 23.8507 182.028 22.912C182.028 21.376 182.582 20.0107 183.692 18.816C184.844 17.6213 186.401 16.6827 188.364 16C190.326 15.3173 192.524 14.976 194.956 14.976C198.625 14.976 201.356 15.936 203.148 17.856C204.982 19.776 205.9 22.8053 205.9 26.944C205.9 28.48 205.9 29.952 205.9 31.36C205.9 32.768 205.878 34.176 205.836 35.584C205.836 36.992 205.836 38.4853 205.836 40.064C205.836 40.704 205.814 41.4293 205.772 42.24C205.729 43.0507 205.665 43.904 205.58 44.8C206.305 44.7573 207.052 44.7147 207.82 44.672C208.588 44.6293 209.313 44.608 209.996 44.608V48H199.82ZM199.244 32.64C197.878 32.7253 196.47 32.9173 195.02 33.216C193.612 33.5147 192.332 33.9627 191.18 34.56C190.028 35.1573 189.089 35.9253 188.364 36.864C187.681 37.8027 187.34 38.9333 187.34 40.256C187.425 41.7067 187.894 42.7733 188.748 43.456C189.644 44.1387 190.689 44.48 191.884 44.48C193.377 44.48 194.7 44.2027 195.852 43.648C197.004 43.0507 198.134 42.24 199.244 41.216C199.201 40.7467 199.18 40.2773 199.18 39.808C199.18 39.296 199.18 38.7627 199.18 38.208C199.18 37.824 199.18 37.12 199.18 36.096C199.222 35.0293 199.244 33.8773 199.244 32.64ZM190.924 9.792L188.748 7.936L194.06 -0.832001C194.657 -1.68534 195.254 -2.21867 195.852 -2.432C196.492 -2.688 197.068 -2.752 197.58 -2.624C198.134 -2.53867 198.561 -2.368 198.86 -2.112C199.201 -1.856 199.457 -1.45067 199.628 -0.896004C199.798 -0.341337 199.777 0.277331 199.564 0.959999C199.393 1.6 198.966 2.28267 198.284 3.008L190.924 9.792ZM214.127 48V45.312C215.407 45.312 216.303 45.0133 216.815 44.416C217.327 43.8187 217.626 42.9867 217.711 41.92C217.839 40.8533 217.903 39.616 217.903 38.208L217.967 24.896C217.967 24.2133 217.967 23.488 217.967 22.72C218.01 21.9093 218.095 21.12 218.223 20.352C217.455 20.3947 216.666 20.4373 215.855 20.48C215.087 20.48 214.362 20.5013 213.679 20.544V17.152C215.599 17.152 217.092 17.0667 218.159 16.896C219.268 16.6827 220.1 16.448 220.655 16.192C221.252 15.936 221.7 15.6587 221.999 15.36H224.303C224.346 15.744 224.367 16.1067 224.367 16.448C224.41 16.7893 224.431 17.152 224.431 17.536C224.474 17.92 224.516 18.4107 224.559 19.008C225.498 18.24 226.522 17.5573 227.631 16.96C228.74 16.3627 229.892 15.8933 231.087 15.552C232.324 15.168 233.498 14.976 234.607 14.976C238.404 14.976 241.135 16.128 242.799 18.432C244.506 20.736 245.359 24.3413 245.359 29.248V40.064C245.359 40.832 245.338 41.6213 245.295 42.432C245.252 43.2 245.188 43.9893 245.103 44.8C245.786 44.7573 246.468 44.736 247.151 44.736C247.876 44.6933 248.538 44.6507 249.135 44.608V48H234.863V45.312C236.143 45.312 237.039 45.0133 237.551 44.416C238.063 43.8187 238.362 42.9867 238.447 41.92C238.575 40.8533 238.639 39.616 238.639 38.208V29.248C238.596 25.8773 238.042 23.3387 236.975 21.632C235.951 19.9253 234.287 19.0933 231.983 19.136C230.618 19.136 229.274 19.4773 227.951 20.16C226.628 20.8427 225.519 21.6747 224.623 22.656C224.623 23.0827 224.623 23.552 224.623 24.064C224.623 24.5333 224.623 25.024 224.623 25.536V40.064C224.623 40.832 224.602 41.6213 224.559 42.432C224.516 43.2 224.452 43.9893 224.367 44.8C225.05 44.7573 225.732 44.736 226.415 44.736C227.14 44.6933 227.802 44.6507 228.399 44.608V48H214.127Z" fill="#162C3B"/>
<defs>
<linearGradient id="paint0_linear_131_45" x1="231.572" y1="-17" x2="231.572" y2="201.889" gradientUnits="userSpaceOnUse">
<stop stop-color="#62ACCE"/>
<stop offset="0.4" stop-color="#2D759C"/>
</linearGradient>
</defs>
</svg>
